<svg width="1076" height="524" viewBox="0 0 1076 524" fill="none" xmlns="http://www.w3.org/2000/svg">
<g clip-path="url(#clip0_1_22)">
<path d="M464.172 373.335C468.179 373.285 472.291 373.228 476.289 373.199C488.294 373.112 496.189 372.123 503.984 382.846C505.869 399.576 500.245 400.146 488.081 407.426C491.397 415.828 493.814 426.111 499.533 432.898C501.736 435.512 505.465 436.277 508.456 438.585C507.575 440.667 503.782 439.985 501.7 440.044C489.083 440.402 485.83 430.377 482.11 420.6C480.894 417.019 479.778 412.81 478.714 409.137L471.228 408.911C470.608 414.612 467.388 426.501 466.146 433.474C468.144 435.699 469.997 437.511 472.137 439.587C462.484 439.508 452.883 439.742 443.263 439.673C445.166 438.379 450.445 435.826 452.782 434.58C457.063 428.324 465.068 393.064 467.425 383.565C467.701 382.454 467.677 378.385 467.651 376.99C465.526 376.599 462.738 376.36 461.352 374.843C462.279 373.682 462.594 373.865 464.172 373.335ZM472.39 405.896C476.123 405.294 480.97 404.78 484.481 403.984C493.747 398.92 494.748 391.437 493.198 381.838C491.001 379.445 490.245 378.629 487.569 376.673C485.584 376.491 482.331 376.095 480.44 376.138C477.768 385.414 474.558 396.516 472.39 405.896Z" fill="#8FEBAF"/>
<path d="M657.668 396.384C660.195 396.288 664.908 395.852 666.91 397.198C667.462 400.098 661.714 413.629 660.532 418.502C665.181 413.865 674.948 391.826 684.411 397.114C692.218 401.478 682.178 413.391 683.134 418.49C687.069 412.124 695.223 396.166 704.333 396.256C706.582 396.279 708.589 399.364 709.84 401.103C708.878 409.195 702.237 425.201 699.773 434.762C707.228 430.279 706.698 428.803 708.337 420.39L710.26 428.396C708.773 432.388 706.367 436.318 702.437 438.329C681.4 449.103 694.109 423.52 696.957 415.359C697.855 412.632 700.204 406.43 699.369 403.787L698.517 403.731C691.85 408.525 685.178 422.614 680.707 429.737C678.558 433.167 676.698 439.744 672.484 440.143C662.339 436.492 680.98 407.557 678.143 402.919C670.651 406.143 658.22 431.386 653.817 438.958C653.076 440.23 652.283 440.283 651.08 440.466C649.992 440.129 649.33 439.695 648.663 438.751C645.285 433.958 655.467 408.16 656.544 400.679C648.395 407.527 652.257 408.104 647.765 414.436L646.956 414.552C646.02 412.477 646.504 409.842 647.292 407.783C649.593 401.775 651.689 399.036 657.668 396.384Z" fill="#8FEBAF"/>
<path d="M898.182 369.53C900.357 369.069 901.16 368.964 902.873 370.413C904.56 373.973 902.537 378.343 901.534 381.904C896.742 398.958 888.425 417.483 884.999 434.725C893.931 428.896 892.618 421.793 894.504 420.692C895.628 422.039 895.297 425.979 895.076 427.692C894.33 433.456 890.148 436.518 885.84 439.771C878.327 440.769 872.831 440.943 876.084 430.963C877.413 426.886 881.322 418.747 881.558 414.679C880.623 415.487 878.963 418.494 878.18 419.68C873.777 426.506 870.273 433.561 863.7 438.59C854.669 445.608 852.667 434.388 854.49 427.643C856.513 420.17 859.176 413.421 863.784 407.157C867.535 402.063 871.213 399.638 876.499 396.387C880.781 396.14 882.709 395.937 886.644 397.759C889.092 393.574 893.521 380.776 892.78 376.449C890.71 374.795 888.614 377.997 886.88 375.303L887.358 374.272C890.075 371.92 894.772 370.486 898.182 369.53ZM867.031 429.195C871.071 425.263 882.562 407.9 884.306 402.687C881.327 400.118 880.859 399.313 876.877 399.447C869.563 404.912 863.401 424.198 862.108 432.882C862.035 433.374 861.972 433.867 861.924 434.362L867.031 429.195Z" fill="#8FEBAF"/>
<path d="M545.04 406.756C549.585 396.494 554.482 395.571 565.01 396.748C564.107 399.867 557.87 417.123 557.897 418.59L558.548 418.559C563.807 411.721 574.935 385.843 585.28 401.15C584.481 404.571 580.236 416.095 580.699 417.308C585.816 414.026 597.942 382.452 607.388 402.521C605.817 408.03 597.952 429.387 598 432.973C599.292 433.88 598.688 433.721 600.269 433.563C604.551 430.501 605.124 423.446 607.204 422.283C610.972 432.472 597.185 443.473 589.483 440.235C583.121 433.814 599.86 409.989 596.86 402.489C591.947 404.334 577.21 430.735 574.105 436.716C572.944 438.959 572.04 441.246 569.119 440.334C566.418 437.567 566.676 432.652 567.679 429.236C570.49 419.691 574.336 411.585 576.138 401.695C564.763 411.509 558.243 426.093 551.14 438.969C550.641 439.875 549.222 440.094 548.319 440.308C538.499 435.956 555.39 407.719 553.578 402.29C550.494 402.742 548.534 406.165 547.278 408.789C546.454 407.128 546.974 407.697 545.04 406.756Z" fill="#8FEBAF"/>
<path d="M737.007 368.966C739.482 369.413 738.768 368.961 740.57 370.546C742.661 375.416 738.205 382.792 737.197 387.464C736.251 391.815 725.543 419.067 726.578 421.056C729.878 415.078 740.223 397.843 745.818 396.78C762.909 393.531 752.165 416.921 749.533 421.73C742.398 434.486 734.454 441.764 719.055 439.758C714.894 436.197 713.901 434.684 714.962 428.878C716.018 423.129 718.477 417.713 720.153 412.138C723.762 400.13 728.517 387.778 730.855 375.49C728.638 376.01 727.482 376.455 725.307 375.885L724.876 375.128C726.563 372.162 733.855 369.941 737.007 368.966ZM724.303 437.801C729.72 437.773 729.1 437.589 733.361 434.318C738.032 430.733 748.655 406.742 744.484 402.522C740.475 407.211 719.018 433.266 724.303 437.801Z" fill="#8FEBAF"/>
<path d="M368.295 63.3661L370.4 63.6962C370.622 63.9401 370.843 64.1834 371.064 64.4268C371.886 80.9104 369.912 111.269 371.688 126.199C373.657 126.916 376.688 127.472 376.302 129.994C374.004 131.611 354.09 130.767 351.61 129.31L351.484 128.457C353.453 126.803 356.821 128.299 358.52 125.752C361.565 121.187 361.074 110.09 360.417 105.062C354.351 105.17 348.968 105.032 342.911 104.812C340.166 107.468 337.878 111.122 335.814 114.319C332.852 118.585 331.467 121.916 329.777 126.759C331.827 127.136 333.649 126.994 335.513 128.057L335.665 129.175C334.027 132.639 328.835 131.032 325.54 130.613C321.912 130.153 317.143 130.616 313.849 129.67L313.724 129.061C317.19 126.464 320.972 125.469 324.177 122.109C327.955 118.149 331.401 113.019 334.711 108.578C341.898 99.1322 348.891 89.5399 355.687 79.8078C358.624 75.5821 364.626 66.6689 368.295 63.3661ZM346.332 101.88C351.071 101.799 356.259 101.82 360.957 101.603C360.968 98.1499 361.621 82.3631 361.012 80.3591L360.182 79.6517C357.638 83.4069 345.827 98.7958 345.519 101.302L346.332 101.88Z" fill="#8FEBAF"/>
<path d="M844.781 396.386C847.455 396.258 849.389 395.941 851.8 397.252C865.739 404.843 841.56 422.704 835.592 415.516C836.48 414.448 839.658 414.188 841.46 413.367C846.105 411.253 850.466 403.953 845.727 399.571C838.665 399.821 834.389 416.492 833.175 421.9C832.077 426.79 830.453 433.318 836.727 434.8C841.686 433.565 847.056 428.085 847.25 422.853L847.917 422.429L848.953 423.139C851.075 427.77 844.802 434.745 841.618 437.823C838.471 440.864 835.839 440.49 831.798 440.364C820.639 440.017 823.334 428.424 823.881 420.929C823.907 420.541 822.651 419.654 822.783 417.828C824.243 416.395 825.079 416.739 826.056 414.994C830.874 406.358 835.24 400.24 844.781 396.386Z" fill="#8FEBAF"/>
<path d="M636.547 396.215C639.379 396.251 641.875 396.4 643.751 398.74C651.421 408.289 633.332 420.487 625.519 416.093L625.299 415.187C627.999 413.603 635.223 414.004 636.931 407.46C637.74 404.372 637.036 402.508 636.069 399.518C627.847 398.2 619.026 427.362 623.618 433.934C630.101 438.177 635.103 427.055 637.53 423.27L638.092 423.508C639.484 430.763 634.257 435.74 629.008 439.738C622.278 440.94 614.781 441.234 613.02 432.644C612.548 430.336 612.679 427.74 613.073 425.426C613.11 424.579 613.83 422.541 613.672 421.778C612.689 417.052 616.509 413.346 619.341 409.041C622.987 403.496 629.681 397.415 636.547 396.215Z" fill="#8FEBAF"/>
<path d="M779.328 396.353C781.371 396.244 784.576 395.902 786.1 397.15C794.937 404.391 786.794 413.296 778.582 415.84C775.393 416.829 772.871 417.728 770.386 415.542C771.379 414.059 772.597 414.972 774.105 413.998C776.181 412.658 778.335 411.448 780.468 410.208C781.245 407.718 782.601 401.643 780.867 399.417C775.529 397.365 769.576 412.45 768.673 416.653C767.359 422.789 762.752 430.439 769.666 434.752C777.73 433.86 779.638 425.78 783.205 424.696C780.463 436.942 775.45 440.812 763.33 440.303C751.44 433.282 760.435 425.74 757.309 418.454C760.193 410.958 771.216 398.839 779.328 396.353Z" fill="#8FEBAF"/>
<path d="M531.564 396.42C550.299 395.319 543.375 413.966 530.114 416.37C528.07 416.74 525.501 417.288 523.636 416.175C524.979 414.427 530.524 412.274 533.45 409.788C535.032 407.143 535.399 401.427 532.562 399.428C526.862 399.408 522.395 413.634 521.206 418.219C519.789 423.685 516.399 431.677 523.078 434.718C528.643 433.962 533.088 428.656 535.673 423.891L535.851 423.556C537.138 435.769 523.078 445.944 511.53 436.811C510.643 434.432 509.686 419.245 510.423 417.351C513.663 416.338 517.075 407.457 520.726 404.045C524.591 400.435 526.578 398.68 531.564 396.42Z" fill="#8FEBAF"/>
<path d="M791.448 407.335C794.843 397.032 800.963 394.558 811.345 396.939C810.021 401.36 804.704 416.201 804.751 419.419C805.618 421.56 805.156 421.35 806.806 422.446C803.249 427.864 800.748 436.024 795.977 439.944C792.804 442.548 791.554 436.281 791.522 434.311C791.443 429.315 800.848 404.992 799.834 402.189C796.592 402.953 794.454 406.708 793.613 409.691L793.009 407.664L791.448 407.335Z" fill="#8FEBAF"/>
<path d="M809.285 411.45C812.37 406.463 815.937 398.6 821.611 396.565C826.245 394.904 830.138 401.455 827.396 404.872C826.686 405.761 825.604 406.267 824.464 406.237C822.982 406.194 821.175 405.094 819.951 404.346C815.564 409.121 814.235 410.848 810.778 416.219L809.585 415.835C808.676 414.084 809.091 413.775 809.285 411.45Z" fill="#8FEBAF"/>
<path d="M809.285 411.45C809.091 413.775 808.676 414.084 809.585 415.835L810.778 416.219L806.806 422.446C805.156 421.35 805.618 421.56 804.751 419.419C805.508 416.789 807.736 414.414 809.285 411.45Z" fill="#8FEBAF"/>
<path d="M545.04 406.756C546.974 407.697 546.454 407.127 547.278 408.789C547.1 410.651 547.163 412.452 546.002 413.85L545.261 413.832C543.895 411.251 544.42 409.547 545.04 406.756Z" fill="#8FEBAF"/>
<path d="M791.448 407.335L793.009 407.664L793.613 409.691C793.429 411.351 793.513 412.554 792.42 413.729L791.774 413.294C790.828 410.977 791.138 409.862 791.448 407.335Z" fill="#8FEBAF"/>
<path d="M374.839 190.306C379.965 185.407 384.497 177.971 389.033 172.332C395.064 164.836 401.103 157.131 407.404 149.817C447.883 103.385 496.703 50.1304 560.571 39.9175C565.951 39.0568 571.614 38.3665 576.926 38.5506C595.304 39.1877 609.611 45.405 608.229 66.6053C606.411 94.361 587.954 118.072 568.305 136.453C533.855 168.017 487.588 186.388 441.984 194.134C430.216 196.133 414.764 198.226 402.943 198.138C399.916 204.148 390.982 215.001 386.767 221.204C373.146 241.248 359.541 261.215 344.642 280.345C335.571 291.99 324.612 306.28 314.137 316.652C326.411 332.524 339.223 348.006 351.632 363.778C381.365 401.571 463.277 509.998 509.122 515.971C516.833 516.976 534.201 516.464 540.564 511.508L540.884 511.254C546.921 506.599 552.784 496.33 558.038 496.087C561.448 498.223 558.837 504.977 556.825 507.532C551.187 514.683 541.73 518.187 533.298 520.781C530.03 521.784 526.862 522.209 524.248 524H496.034C491.115 520.948 482.046 519.803 476.69 517.137C414.636 486.254 369.845 428.333 325.779 376.582C314.925 363.834 304.759 349.605 293.55 337.329C245.245 383.984 172.115 427.351 102.664 420.765C65.7385 417.263 27.5006 392.566 10.0797 359.802C8.09601 356.034 6.35255 352.144 4.85981 348.155C3.56271 344.595 2.0626 336.028 0 333.564V303.362L0.273409 302.965C2.1621 300.169 1.76837 298.756 2.41176 295.712C11.8028 251.285 53.6287 220.735 96.2363 211.896C143.574 202.488 192.71 212.195 232.919 238.897C256.215 254.231 276.511 274.289 295.049 294.965C309.004 276.821 324.006 259.359 337.946 240.893C347.622 228.077 359.214 210.561 369.323 198.747C335.672 197.599 289.076 193.532 264.721 167.291C252.733 154.232 246.393 136.96 247.084 119.243C247.949 98.7159 255.818 77.1016 271.17 63.0172C279.872 54.9238 290.269 48.8746 301.604 45.3092C305.072 44.1869 310.858 42.1061 313.236 46.6134C312.916 47.535 312.837 48.0023 311.726 48.2835C271.188 58.5471 255.813 110.237 272.501 146.667C287.999 180.504 339.675 190.744 374.839 190.306ZM167.337 402.167C204.115 385.684 236.69 358.668 263.904 329.225C267.335 325.514 273.164 319.719 276.055 316.01C244.974 275.732 201.289 224.77 148.245 218.935C141.123 218.152 129.474 217.158 122.524 217.893C64.6882 222.266 21.8282 262.642 25.221 321.362C28.4299 376.901 66.1115 415.52 122.324 413.404C134.566 412.943 156.515 407.666 167.337 402.167ZM410.797 189.011C419.552 188.039 424.163 187.978 432.8 186.138C442.309 185.122 452.926 182.432 462.209 179.852C505.413 167.843 549.438 143.459 578.124 108.45C586.835 97.8182 601.063 76.4746 599.723 62.1111C599.444 59.1316 598.262 56.7318 596.833 54.1559C590.387 50.9673 584.366 49.805 577.189 50.6745C561.138 51.8978 539.839 63.6069 526.399 72.7819C482.297 102.882 446.759 144.628 413.281 185.79C412.436 186.829 411.563 187.923 410.797 189.011Z" fill="#8FEBAF"/>
<path d="M1049.18 0H1076V12.5424C1070.79 11.9231 1067.23 9.40598 1062.04 8.64653C1050.35 6.93546 1038.22 13.3878 1029.06 19.8856C1018.46 27.5811 1007.75 37.0494 999.067 46.9194C941.531 112.365 887.816 181.359 837.893 252.779C823.045 274.017 807.073 294.534 795.83 318.066C794.548 320.749 792.399 324.865 791.921 327.64L792.483 328.027C795.877 327.237 808.697 314.171 813.068 310.62C824.196 301.577 847.77 282.853 860.569 278.297C864.105 277.015 867.877 276.532 871.618 276.883C874.607 277.184 880.518 279.045 882.425 281.359C883.066 283.284 883.124 282.652 882.751 284.53C875.968 286.805 865.261 287.415 859.077 290.343C839.08 299.812 818.154 316.31 801.184 330.521C793.34 337.093 789.988 345.161 782.706 349.992C778.839 347.966 776.737 345.978 774.142 342.411C762.415 326.279 777.809 307.566 786.363 293.864C788.643 290.208 792.652 284.935 793.319 280.637L792.809 280.035C789.951 281.983 778.519 294.619 774.967 298.209C758.921 314.417 742.24 331.294 723.437 344.275C718.508 347.521 710.128 351.468 704.234 349.571C684.253 343.143 693.957 308.302 697.388 294.842C692.391 299.039 686.213 302.402 680.89 306.326C667.997 316.269 650.849 327.049 640.567 339.739C629.807 353.017 624.406 352.174 618.8 335.241C615.521 325.337 620.833 314.137 626.024 305.68C633.432 293.618 641.822 281.549 649.456 269.555C654.201 261.964 669.426 244.558 667.104 235.819C663.453 231.517 648.936 239.801 645.027 241.985C609.805 261.668 581.045 287.551 557.744 320.51C551.271 329.659 545.03 340.472 538.399 349.389C535.536 352.201 522.33 334.826 527.214 324.082C533.056 311.233 540.249 300.87 547.499 288.713C525.674 301.096 505.756 314.897 486.901 331.542C480.002 337.633 475.236 346.745 468.512 351.402C464.038 348.351 458.915 344.729 456.673 339.69C448.131 320.491 476.705 292.826 481.43 278.836L481.519 278.567C476.956 281.158 468.842 290.376 464.694 294.535C446.97 312.442 429.917 330.748 409.293 345.418C399.037 352.714 386.208 351.715 382.35 338.328C377.671 322.091 385.453 296.499 393.332 282.159C414.301 243.994 475.552 207.904 517.901 230.116C519.929 227.719 521.836 225.658 523.987 223.377C537.816 222.292 563.508 214.983 540.785 236.933C539.813 237.873 538.83 238.967 537.895 239.956C513.245 266.278 492.853 296.289 477.457 328.905C486.294 325.37 488.919 319.251 495.629 314.116C510.975 302.37 536.082 278.946 555.296 276.34C559.289 270.033 583.709 235.454 584.234 233.476C584.35 233.049 584.166 232.968 583.945 232.613C581.402 233.352 573.553 237.412 570.217 238.848C566.513 236.638 561.884 235.043 562.336 230.289C561.553 230.985 602.854 218.401 602.66 218.408C634.115 217.329 582.485 270.626 578.56 280.264C577.488 282.9 572.534 287.103 572.744 290.773C574.373 290.362 582.742 281.435 584.697 279.532C601.887 262.8 657.826 213.782 683.481 222.364C686.943 223.503 689.775 226.034 691.293 229.348C702.426 253.216 647.218 306.333 639.61 327.664C642.847 328.719 647.617 323.109 650.313 320.618C660.962 310.311 671.985 301.709 684.048 293.206C692.086 286.562 702.431 283.966 707.822 274.694C720.195 253.404 744.069 236.849 766.855 228.39C784.361 221.893 807.956 220.597 825.184 229.043C847.476 198.893 870.178 169.046 893.274 139.511C906.057 123.065 919.176 106.885 932.631 90.9821C960.75 57.4986 994.233 20.2571 1036.37 4.07894C1040.48 2.50011 1045.63 2.21836 1049.18 0ZM734.17 325.934C759.515 305.391 784.345 281.825 805.566 257.003C809.632 252.246 814.145 245.305 818.359 239.99C812.18 232.44 803.343 230.065 793.881 231.388C777.247 233.156 753.851 257.213 743.128 270.436C731.113 285.254 715.74 310.381 716.738 330.318C716.785 331.277 717.184 332.178 717.705 332.979C722.16 336.299 730.713 328.673 734.17 325.934ZM421.161 324.795C442.269 308.02 463.617 285.901 482.657 266.639C490.009 259.202 502.163 246.674 508.025 237.867C501.118 233.136 494.225 229.494 485.471 231.447C468.37 232.963 448.254 251.704 437.15 265.274C424.027 282.417 407.114 303.831 405.723 325.958C405.648 327.155 406.681 329.682 407.616 330.338C412.035 333.437 418.146 327.676 421.161 324.795Z" fill="#8FEBAF"/>
</g>
<defs>
<clipPath id="clip0_1_22">
<rect width="1076" height="524" fill="#8FEBAF"/>
</clipPath>
</defs>
</svg>
